HIERARCHY
ROOT root
{
	OFFSET 0.000000 0.000000 0.000000
	CHANNELS 6 Xposition Yposition Zposition Zrotation Yrotation Xrotation
	JOINT lhip
	{
		OFFSET 0.058581 -0.082280 -0.017664
		CHANNELS 3 Zrotation Yrotation Xrotation
		JOINT lknee
		{
			OFFSET 0.043451 -0.386469 0.008037
			CHANNELS 3 Zrotation Yrotation Xrotation
			JOINT lankle
			{
				OFFSET -0.014790 -0.426874 -0.037428
				CHANNELS 3 Zrotation Yrotation Xrotation
				JOINT ltoe
				{
					OFFSET 0.041054 -0.060286 0.122042
					CHANNELS 3 Zrotation Yrotation Xrotation
					End Site
					{
						OFFSET 0.000000 0.000000 0.000000
					}
				}
			}
		}
	}
	JOINT rhip
	{
		OFFSET -0.060310 -0.090513 -0.013543
		CHANNELS 3 Zrotation Yrotation Xrotation
		JOINT rknee
		{
			OFFSET -0.043257 -0.383688 -0.004843
			CHANNELS 3 Zrotation Yrotation Xrotation
			JOINT rankle
			{
				OFFSET 0.019056 -0.420046 -0.034562
				CHANNELS 3 Zrotation Yrotation Xrotation
				JOINT rtoe
				{
					OFFSET -0.034840 -0.062106 0.130323
					CHANNELS 3 Zrotation Yrotation Xrotation
					End Site
					{
						OFFSET 0.000000 0.000000 0.000000
					}
				}
			}
		}
	}
	JOINT lowerback
	{
		OFFSET 0.004439 0.124404 -0.038385
		CHANNELS 3 Zrotation Yrotation Xrotation
		JOINT upperback
		{
			OFFSET 0.004488 0.137956 0.026820
			CHANNELS 3 Zrotation Yrotation Xrotation
			JOINT chest
			{
				OFFSET -0.002265 0.056032 0.002855
				CHANNELS 3 Zrotation Yrotation Xrotation
				JOINT lowerneck
				{
					OFFSET -0.013390 0.211636 -0.033468
					CHANNELS 3 Zrotation Yrotation Xrotation
					JOINT upperneck
					{
						OFFSET 0.010113 0.088937 0.050410
						CHANNELS 3 Zrotation Yrotation Xrotation
						End Site
						{
							OFFSET 0.000000 0.000000 0.000000
						}
					}
				}
				JOINT lclavicle
				{
					OFFSET 0.071702 0.114000 -0.018898
					CHANNELS 3 Zrotation Yrotation Xrotation
					JOINT lshoulder
					{
						OFFSET 0.122921 0.045205 -0.019046
						CHANNELS 3 Zrotation Yrotation Xrotation
						JOINT lelbow
						{
							OFFSET 0.255332 -0.015649 -0.022946
							CHANNELS 3 Zrotation Yrotation Xrotation
							JOINT lwrist
							{
								OFFSET 0.265709 0.012698 -0.007375
								CHANNELS 3 Zrotation Yrotation Xrotation
								End Site
								{
									OFFSET 0.000000 0.000000 0.000000
								}
							}
						}
					}
				}
				JOINT rclavicle
				{
					OFFSET -0.082954 0.112472 -0.023707
					CHANNELS 3 Zrotation Yrotation Xrotation
					JOINT rshoulder
					{
						OFFSET -0.113228 0.046853 -0.008472
						CHANNELS 3 Zrotation Yrotation Xrotation
						JOINT relbow
						{
							OFFSET -0.260127 -0.014369 -0.031269
							CHANNELS 3 Zrotation Yrotation Xrotation
							JOINT rwrist
							{
								OFFSET -0.269108 0.006794 -0.006027
								CHANNELS 3 Zrotation Yrotation Xrotation
								End Site
								{
									OFFSET 0.000000 0.000000 0.000000
								}
							}
						}
					}
				}
			}
		}
	}
}
MOTION
Frames: 10
Frame Time: 0.033333
-0.229545 -0.945709 0.955889 -165.868036 -2.216762 101.303846 11.776681 1.096512 -27.954832 -5.658049 6.202205 16.132605 -2.794475 2.617364 -6.956200 0.000000 -0.000000 0.000000 -13.058501 -7.736863 -30.315706 -1.561210 -18.165057 34.075402 4.036989 -10.035234 -16.741834 0.000000 -0.000000 0.000000 -0.088686 -0.519917 28.662408 1.425889 -2.146513 1.053741 1.175033 -2.925973 -2.380480 -1.308351 0.121067 -10.302232 0.434900 -6.868891 8.609402 -30.357439 -13.270932 9.213604 -50.858350 -18.997976 21.666861 2.997128 -49.601566 -1.495035 -12.771711 -24.007902 -35.739361 28.098193 14.626131 8.146754 41.024706 14.950907 7.413934 -5.114923 8.558127 -32.006880 7.806644 13.534330 -21.316436 
-0.233287 -0.950433 0.954145 -166.820754 -1.615047 101.898177 11.846281 2.103064 -29.516517 -5.522673 5.662036 17.992186 -2.479679 2.355106 -7.277804 0.000000 -0.000000 0.000000 -12.773439 -7.348507 -31.451454 -1.457852 -17.995469 33.916215 4.975578 -9.702787 -16.759168 0.000000 -0.000000 0.000000 0.597525 -0.608439 29.654693 1.200867 -2.435335 1.989667 1.050532 -2.996396 -2.789367 -1.195308 -0.983892 -10.271569 1.163109 -5.693269 8.571140 -30.172102 -16.362960 9.683357 -51.401555 -18.983417 24.682722 -3.823775 -49.227922 13.009309 2.067127 -20.731336 -25.702458 27.941121 17.350720 9.324792 41.388127 13.672357 7.152842 -2.424043 8.668577 -31.701575 0.262531 14.743167 -29.078309 
-0.236357 -0.951212 0.949462 -168.617570 -0.320827 102.951520 12.818279 4.927641 -31.111615 -5.752866 6.498878 19.959073 -2.104750 1.127788 -7.959055 0.000000 -0.000000 0.000000 -11.354227 -6.986131 -33.008044 -1.348461 -17.032558 33.736021 4.420546 -9.342514 -16.057276 0.000000 -0.000000 0.000000 0.387078 -1.195394 29.527685 1.022233 -1.292823 3.292920 1.759139 -2.498765 -2.902549 -2.917377 -2.758428 -10.252097 2.876069 -3.481451 7.944554 -30.270963 -19.347564 9.585503 -52.428392 -18.656209 24.862438 -9.393032 -49.476287 25.689535 8.742944 -16.915367 -15.898859 27.383654 20.009012 10.412542 41.583270 12.154109 3.785230 -0.421650 8.431201 -29.400367 0.018688 15.410890 -34.816993 
-0.246767 -0.954326 0.946771 -169.926826 0.589290 103.417682 13.042682 5.574778 -32.725892 -5.680926 6.323336 22.359482 -1.336672 1.794668 -8.834407 0.000000 -0.000000 0.000000 -10.789486 -7.212441 -33.818685 -1.253951 -16.194707 33.402237 4.778952 -8.631260 -15.279791 0.000000 -0.000000 0.000000 1.112307 -1.318608 32.315522 0.982187 -1.500016 3.392335 1.900903 -2.340749 -3.279261 -4.102815 -2.796991 -11.724877 3.628831 -2.815366 8.395388 -29.689381 -22.033568 9.195177 -54.457745 -19.515798 26.598564 -12.873884 -50.082558 32.341258 8.992122 -17.655952 -14.719062 26.941295 21.882004 10.812040 41.813623 11.298163 1.925612 1.392492 8.176323 -29.199509 3.935411 16.150093 -37.599769 
-0.250694 -0.954755 0.946039 -170.318967 0.810038 103.372810 13.062297 5.604679 -32.939084 -5.577241 6.499100 23.086317 -1.218110 1.898389 -9.266630 0.000000 -0.000000 0.000000 -10.716673 -7.273430 -33.814137 -1.327308 -15.925421 33.268506 4.991290 -8.321132 -14.989730 0.000000 -0.000000 0.000000 1.072183 -1.218026 33.184074 1.046687 -1.536278 3.844257 2.113478 -2.447033 -3.702721 -4.247607 -2.592558 -12.165243 3.868572 -2.806613 8.442185 -29.456260 -23.002978 9.170944 -55.208190 -19.780419 27.410508 -13.451540 -50.281907 33.567324 9.677949 -17.798941 -14.549214 26.841382 22.524772 11.108114 41.944986 11.024792 1.984409 1.848168 8.695184 -28.962502 4.762203 16.427249 -38.633407 
-0.259312 -0.954762 0.944755 -171.075139 1.059729 103.388935 13.017716 5.506790 -33.532705 -5.627267 6.847775 24.727914 -0.955976 2.292328 -10.360649 0.000000 -0.000000 0.000000 -10.901395 -7.407477 -33.828202 -1.543305 -15.724494 33.101083 5.647304 -7.414241 -14.662450 0.000000 -0.000000 0.000000 1.049383 -1.111830 35.147242 0.873067 -1.814321 3.073289 2.331000 -2.783906 -3.777213 -4.357829 -2.513297 -12.446047 4.405237 -2.408997 8.369094 -29.400632 -24.206897 9.260176 -56.323897 -19.993174 28.492537 -13.379465 -50.782103 35.688634 8.344327 -18.529860 -10.919111 26.859205 23.203231 11.168116 42.509039 10.821093 2.242852 3.185303 9.317799 -28.777088 7.414745 16.959554 -40.629718 
-0.269459 -0.954100 0.943193 -171.900950 0.913092 103.579844 12.626726 5.126376 -34.184858 -5.907562 7.302624 26.255805 -0.301085 3.096231 -11.677421 0.000000 -0.000000 0.000000 -11.830227 -7.261287 -34.019866 -1.329302 -15.230385 32.828334 6.014706 -7.498055 -14.042669 0.000000 -0.000000 0.000000 0.568883 -0.958937 36.469976 0.728685 -2.122468 2.303602 2.287624 -2.793801 -3.618415 -4.163344 -2.421383 -13.060525 5.043976 -2.460647 8.579694 -29.164249 -24.966589 9.173461 -57.269464 -20.405296 30.391283 -15.181546 -49.705484 38.089648 9.659095 -19.414284 -12.327753 26.938026 23.437532 10.885939 43.561282 10.592929 3.385076 4.445764 9.845489 -29.692339 9.047139 18.264285 -46.509750 
-0.280166 -0.955686 0.940544 -173.942188 0.724930 104.408873 12.567253 4.763003 -35.296343 -6.257095 8.823282 27.746730 0.196396 4.042711 -12.836268 0.000000 -0.000000 0.000000 -13.351048 -5.357864 -35.691506 -1.340586 -14.958232 33.148663 6.766310 -7.955977 -13.435399 0.000000 -0.000000 0.000000 -0.291515 0.135559 36.346856 0.310415 -1.819450 2.174471 1.965734 -3.086807 -3.074537 -2.982192 -1.360673 -15.114462 4.936942 -4.022901 9.248287 -27.751057 -25.305525 8.547442 -58.910068 -21.032376 31.920104 -14.606289 -48.554087 39.673763 8.195026 -20.286137 -11.391202 26.810594 23.556490 10.846817 45.293961 11.036271 4.760759 4.004978 9.841858 -29.865935 12.636306 20.985739 -51.193700 
-0.291790 -0.953577 0.938804 -174.871116 0.963734 104.843994 12.355989 4.678062 -36.385488 -6.261578 9.455709 29.903979 0.790264 4.543128 -14.335619 0.000000 -0.000000 0.000000 -13.883131 -4.830294 -36.292930 -1.469520 -14.507642 33.307563 7.079684 -8.012190 -13.055919 0.000000 -0.000000 0.000000 -1.027551 0.406030 36.028108 0.320973 -1.499333 2.048600 2.031875 -2.874590 -2.842006 -2.540491 -1.434761 -15.878033 5.227281 -4.708342 8.981056 -28.101097 -25.374927 8.969684 -59.041444 -21.009920 31.522292 -13.925310 -48.059133 39.480107 7.661818 -20.487566 -9.926102 27.111897 23.268676 11.306182 45.460333 10.598801 4.715828 3.284516 11.368823 -28.704702 12.713552 21.026996 -52.544483 
-0.305417 -0.948265 0.938375 -175.282217 1.079336 104.135870 11.637055 4.368479 -36.050321 -6.196427 9.235057 31.679753 1.356889 5.262263 -15.832870 0.000000 -0.000000 0.000000 -14.176268 -5.131618 -35.117214 -1.634552 -13.607062 32.999982 7.623487 -8.001015 -12.861266 0.000000 -0.000000 0.000000 -1.151782 0.604370 36.939699 0.224648 -1.493601 1.593959 2.105306 -2.795012 -2.871087 -2.299212 -2.303325 -16.163343 5.762820 -4.733574 7.659833 -28.935313 -24.910949 9.249898 -57.928135 -20.799023 31.306591 -15.447744 -47.778066 40.017358 8.027465 -19.244847 -13.134820 27.638698 22.964625 11.396208 44.611335 9.593428 5.491395 3.598973 13.384013 -27.659967 11.496622 20.521737 -54.194471 
